<?xml version="1.0" encoding="UTF-8" standalone="no"?>
<!DOCTYPE svg PUBLIC "-//W3C//DTD SVG 1.1//EN"
 "http://www.w3.org/Graphics/SVG/1.1/DTD/svg11.dtd">
<!-- Generated by graphviz version 2.43.0 (0)
 -->
<!-- Title: %3 Pages: 1 -->
<svg width="720pt" height="14pt"
 viewBox="0.00 0.00 720.00 13.88" xmlns="http://www.w3.org/2000/svg" xmlns:xlink="http://www.w3.org/1999/xlink">
<g id="graph0" class="graph" transform="scale(0.22 0.22) rotate(0) translate(4 57.74)">
<title>%3</title>
<polygon fill="white" stroke="transparent" points="-4,4 -4,-57.74 3199.46,-57.74 3199.46,4 -4,4"/>
<!-- input -->
<g id="node1" class="node">
<title>input</title>
<ellipse fill="none" stroke="black" cx="235.47" cy="-26.87" rx="235.43" ry="26.74"/>
<text text-anchor="middle" x="235.47" y="-30.67" font-family="Times,serif" font-size="14.00">Input</text>
<text text-anchor="middle" x="235.47" y="-15.67" font-family="Times,serif" font-size="14.00">[batch, num_meters, seq_len, num_features]</text>
</g>
<!-- flatten -->
<g id="node2" class="node">
<title>flatten</title>
<ellipse fill="none" stroke="black" cx="690.07" cy="-26.87" rx="183.28" ry="26.74"/>
<text text-anchor="middle" x="690.07" y="-30.67" font-family="Times,serif" font-size="14.00">Flatten</text>
<text text-anchor="middle" x="690.07" y="-15.67" font-family="Times,serif" font-size="14.00">→ [batch*num_meters, input_dim]</text>
</g>
<!-- input&#45;&gt;flatten -->
<g id="edge1" class="edge">
<title>input&#45;&gt;flatten</title>
<path fill="none" stroke="black" d="M471.06,-26.87C479.56,-26.87 488.04,-26.87 496.47,-26.87"/>
<polygon fill="black" stroke="black" points="496.71,-30.37 506.71,-26.87 496.71,-23.37 496.71,-30.37"/>
</g>
<!-- fc1 -->
<g id="node3" class="node">
<title>fc1</title>
<ellipse fill="none" stroke="black" cx="1052.05" cy="-26.87" rx="142.67" ry="26.74"/>
<text text-anchor="middle" x="1052.05" y="-30.67" font-family="Times,serif" font-size="14.00">Linear</text>
<text text-anchor="middle" x="1052.05" y="-15.67" font-family="Times,serif" font-size="14.00">(input_dim → hidden_dim)</text>
</g>
<!-- flatten&#45;&gt;fc1 -->
<g id="edge2" class="edge">
<title>flatten&#45;&gt;fc1</title>
<path fill="none" stroke="black" d="M873.43,-26.87C881.92,-26.87 890.4,-26.87 898.79,-26.87"/>
<polygon fill="black" stroke="black" points="898.98,-30.37 908.98,-26.87 898.98,-23.37 898.98,-30.37"/>
</g>
<!-- bn1 -->
<g id="node4" class="node">
<title>bn1</title>
<ellipse fill="none" stroke="black" cx="1306.28" cy="-26.87" rx="75.29" ry="18"/>
<text text-anchor="middle" x="1306.28" y="-23.17" font-family="Times,serif" font-size="14.00">BatchNorm1d</text>
</g>
<!-- fc1&#45;&gt;bn1 -->
<g id="edge3" class="edge">
<title>fc1&#45;&gt;bn1</title>
<path fill="none" stroke="black" d="M1195.01,-26.87C1203.77,-26.87 1212.43,-26.87 1220.81,-26.87"/>
<polygon fill="black" stroke="black" points="1220.89,-30.37 1230.89,-26.87 1220.88,-23.37 1220.89,-30.37"/>
</g>
<!-- relu1 -->
<g id="node5" class="node">
<title>relu1</title>
<ellipse fill="none" stroke="black" cx="1454.07" cy="-26.87" rx="36.29" ry="18"/>
<text text-anchor="middle" x="1454.07" y="-23.17" font-family="Times,serif" font-size="14.00">ReLU</text>
</g>
<!-- bn1&#45;&gt;relu1 -->
<g id="edge4" class="edge">
<title>bn1&#45;&gt;relu1</title>
<path fill="none" stroke="black" d="M1381.88,-26.87C1390.65,-26.87 1399.39,-26.87 1407.58,-26.87"/>
<polygon fill="black" stroke="black" points="1407.63,-30.37 1417.63,-26.87 1407.63,-23.37 1407.63,-30.37"/>
</g>
<!-- dropout1 -->
<g id="node6" class="node">
<title>dropout1</title>
<ellipse fill="none" stroke="black" cx="1575.21" cy="-26.87" rx="48.99" ry="18"/>
<text text-anchor="middle" x="1575.21" y="-23.17" font-family="Times,serif" font-size="14.00">Dropout</text>
</g>
<!-- relu1&#45;&gt;dropout1 -->
<g id="edge5" class="edge">
<title>relu1&#45;&gt;dropout1</title>
<path fill="none" stroke="black" d="M1490.49,-26.87C1498.58,-26.87 1507.38,-26.87 1516.14,-26.87"/>
<polygon fill="black" stroke="black" points="1516.35,-30.37 1526.35,-26.87 1516.35,-23.37 1516.35,-30.37"/>
</g>
<!-- fc2 -->
<g id="node7" class="node">
<title>fc2</title>
<ellipse fill="none" stroke="black" cx="1810.57" cy="-26.87" rx="150.73" ry="26.74"/>
<text text-anchor="middle" x="1810.57" y="-30.67" font-family="Times,serif" font-size="14.00">Linear</text>
<text text-anchor="middle" x="1810.57" y="-15.67" font-family="Times,serif" font-size="14.00">(hidden_dim → hidden_dim)</text>
</g>
<!-- dropout1&#45;&gt;fc2 -->
<g id="edge6" class="edge">
<title>dropout1&#45;&gt;fc2</title>
<path fill="none" stroke="black" d="M1624,-26.87C1632.03,-26.87 1640.74,-26.87 1649.85,-26.87"/>
<polygon fill="black" stroke="black" points="1649.89,-30.37 1659.89,-26.87 1649.89,-23.37 1649.89,-30.37"/>
</g>
<!-- bn2 -->
<g id="node8" class="node">
<title>bn2</title>
<ellipse fill="none" stroke="black" cx="2072.58" cy="-26.87" rx="75.29" ry="18"/>
<text text-anchor="middle" x="2072.58" y="-23.17" font-family="Times,serif" font-size="14.00">BatchNorm1d</text>
</g>
<!-- fc2&#45;&gt;bn2 -->
<g id="edge7" class="edge">
<title>fc2&#45;&gt;bn2</title>
<path fill="none" stroke="black" d="M1961.31,-26.87C1970.06,-26.87 1978.68,-26.87 1987.03,-26.87"/>
<polygon fill="black" stroke="black" points="1987.05,-30.37 1997.05,-26.87 1987.05,-23.37 1987.05,-30.37"/>
</g>
<!-- relu2 -->
<g id="node9" class="node">
<title>relu2</title>
<ellipse fill="none" stroke="black" cx="2220.37" cy="-26.87" rx="36.29" ry="18"/>
<text text-anchor="middle" x="2220.37" y="-23.17" font-family="Times,serif" font-size="14.00">ReLU</text>
</g>
<!-- bn2&#45;&gt;relu2 -->
<g id="edge8" class="edge">
<title>bn2&#45;&gt;relu2</title>
<path fill="none" stroke="black" d="M2148.18,-26.87C2156.95,-26.87 2165.68,-26.87 2173.88,-26.87"/>
<polygon fill="black" stroke="black" points="2173.93,-30.37 2183.93,-26.87 2173.93,-23.37 2173.93,-30.37"/>
</g>
<!-- dropout2 -->
<g id="node10" class="node">
<title>dropout2</title>
<ellipse fill="none" stroke="black" cx="2341.51" cy="-26.87" rx="48.99" ry="18"/>
<text text-anchor="middle" x="2341.51" y="-23.17" font-family="Times,serif" font-size="14.00">Dropout</text>
</g>
<!-- relu2&#45;&gt;dropout2 -->
<g id="edge9" class="edge">
<title>relu2&#45;&gt;dropout2</title>
<path fill="none" stroke="black" d="M2256.79,-26.87C2264.88,-26.87 2273.68,-26.87 2282.43,-26.87"/>
<polygon fill="black" stroke="black" points="2282.65,-30.37 2292.65,-26.87 2282.65,-23.37 2282.65,-30.37"/>
</g>
<!-- fc3 -->
<g id="node11" class="node">
<title>fc3</title>
<ellipse fill="none" stroke="black" cx="2525.25" cy="-26.87" rx="98.99" ry="26.74"/>
<text text-anchor="middle" x="2525.25" y="-30.67" font-family="Times,serif" font-size="14.00">Linear</text>
<text text-anchor="middle" x="2525.25" y="-15.67" font-family="Times,serif" font-size="14.00">(hidden_dim → 1)</text>
</g>
<!-- dropout2&#45;&gt;fc3 -->
<g id="edge10" class="edge">
<title>dropout2&#45;&gt;fc3</title>
<path fill="none" stroke="black" d="M2390.26,-26.87C2398.36,-26.87 2407.05,-26.87 2415.98,-26.87"/>
<polygon fill="black" stroke="black" points="2416.14,-30.37 2426.14,-26.87 2416.14,-23.37 2416.14,-30.37"/>
</g>
<!-- reshape -->
<g id="node12" class="node">
<title>reshape</title>
<ellipse fill="none" stroke="black" cx="2788.23" cy="-26.87" rx="127.97" ry="26.74"/>
<text text-anchor="middle" x="2788.23" y="-30.67" font-family="Times,serif" font-size="14.00">Reshape</text>
<text text-anchor="middle" x="2788.23" y="-15.67" font-family="Times,serif" font-size="14.00">→ [batch, num_meters]</text>
</g>
<!-- fc3&#45;&gt;reshape -->
<g id="edge11" class="edge">
<title>fc3&#45;&gt;reshape</title>
<path fill="none" stroke="black" d="M2624.54,-26.87C2632.85,-26.87 2641.35,-26.87 2649.88,-26.87"/>
<polygon fill="black" stroke="black" points="2649.91,-30.37 2659.91,-26.87 2649.91,-23.37 2649.91,-30.37"/>
</g>
<!-- output -->
<g id="node13" class="node">
<title>output</title>
<ellipse fill="none" stroke="black" cx="3073.84" cy="-26.87" rx="121.74" ry="26.74"/>
<text text-anchor="middle" x="3073.84" y="-30.67" font-family="Times,serif" font-size="14.00">Output</text>
<text text-anchor="middle" x="3073.84" y="-15.67" font-family="Times,serif" font-size="14.00">Predicción por sensor</text>
</g>
<!-- reshape&#45;&gt;output -->
<g id="edge12" class="edge">
<title>reshape&#45;&gt;output</title>
<path fill="none" stroke="black" d="M2916.52,-26.87C2924.89,-26.87 2933.34,-26.87 2941.73,-26.87"/>
<polygon fill="black" stroke="black" points="2941.94,-30.37 2951.94,-26.87 2941.94,-23.37 2941.94,-30.37"/>
</g>
</g>
</svg>
